<?xml version="1.0" standalone="no"?>
<!DOCTYPE svg PUBLIC "-//W3C//DTD SVG 20010904//EN"
 "http://www.w3.org/TR/2001/REC-SVG-20010904/DTD/svg10.dtd">
<svg version="1.0" xmlns="http://www.w3.org/2000/svg"
 width="1024.000000pt" height="1024.000000pt" viewBox="0 0 1024.000000 1024.000000"
 preserveAspectRatio="xMidYMid meet">

<g transform="translate(0.000000,1024.000000) scale(0.100000,-0.100000)"
fill="#000000" stroke="none">
<path d="M3945 8150 c-200 -27 -459 -131 -615 -249 -94 -71 -258 -243 -319
-336 -98 -150 -160 -299 -182 -442 -13 -79 -14 -82 -49 -98 -95 -46 -262 -197
-337 -305 -91 -133 -157 -321 -170 -480 l-6 -85 -55 -60 c-121 -134 -188 -254
-234 -423 -32 -118 -30 -344 5 -467 l25 -89 -34 -68 c-100 -199 -135 -440 -99
-680 22 -147 72 -277 154 -398 24 -35 31 -56 31 -95 0 -78 34 -224 73 -312 48
-111 113 -208 202 -301 48 -51 80 -94 90 -123 45 -126 163 -284 286 -383 83
-66 217 -142 294 -166 137 -43 141 -46 184 -124 114 -208 357 -417 560 -481
34 -11 61 -23 61 -26 0 -3 -78 -9 -172 -12 -455 -16 -990 -86 -1073 -141 -34
-23 -34 -70 0 -92 99 -65 624 -110 1700 -145 385 -13 1382 -7 1700 10 105 6
287 15 405 21 597 30 929 69 982 116 51 47 14 92 -100 123 -161 42 -369 67
-802 96 -129 8 -264 18 -300 21 l-64 6 69 22 c123 40 271 131 376 231 65 62
161 191 199 266 29 56 30 57 107 84 141 50 208 81 278 127 148 96 253 214 343
388 35 69 78 135 107 165 161 171 295 454 295 627 0 43 8 64 56 145 31 52 67
127 80 167 96 278 79 590 -44 837 l-48 96 25 84 c21 74 24 104 24 249 0 139
-3 178 -21 245 -40 145 -113 276 -231 413 -57 67 -58 67 -64 147 -12 151 -68
313 -154 442 -76 116 -228 256 -349 323 -40 21 -42 25 -48 82 -26 224 -158
474 -351 664 -283 277 -606 405 -990 391 -214 -8 -346 -46 -504 -144 -85 -53
-201 -164 -246 -235 -17 -27 -33 -48 -36 -48 -3 0 -20 19 -37 43 -140 195
-387 342 -636 376 -87 12 -250 13 -341 1z m345 -394 c100 -28 179 -75 260
-155 87 -86 134 -164 177 -291 l28 -85 3 -1292 c2 -1041 0 -1293 -10 -1293
-22 0 -115 47 -175 88 -32 22 -105 86 -163 142 -178 173 -254 221 -470 298
-174 62 -231 75 -279 62 -152 -41 -191 -250 -61 -336 21 -14 96 -48 165 -74
69 -26 151 -63 182 -81 31 -19 120 -95 198 -169 138 -131 193 -171 385 -279
89 -51 155 -119 193 -198 l32 -68 -1 -443 c-1 -243 -4 -446 -8 -449 -11 -11
-143 25 -220 60 -83 39 -137 95 -160 166 -9 25 -20 99 -25 163 -17 198 -67
305 -204 435 -153 145 -362 211 -582 183 -215 -27 -424 -136 -585 -307 -78
-82 -114 -142 -179 -295 -19 -46 -21 -48 -62 -48 -98 0 -211 130 -254 291 -23
87 -20 121 16 155 35 33 108 133 133 182 9 18 34 100 56 182 41 157 65 206
124 258 54 47 93 64 163 70 84 6 124 -12 196 -93 69 -77 130 -110 189 -101
113 18 190 120 174 230 -20 129 -219 303 -402 351 -157 41 -356 0 -515 -106
-78 -52 -180 -166 -217 -242 -18 -36 -45 -114 -61 -175 -16 -60 -34 -118 -39
-129 -19 -33 -35 33 -40 167 -5 158 7 210 91 385 60 127 62 132 61 210 0 61
-7 100 -29 165 -25 70 -30 102 -30 180 0 86 3 101 31 160 17 36 40 76 51 89
l20 24 45 -46 c95 -95 210 -140 353 -140 117 0 191 20 345 93 224 105 220 104
360 105 116 0 129 -2 183 -27 34 -16 87 -55 125 -92 81 -77 118 -97 181 -98
154 -1 242 161 164 304 -41 75 -155 169 -278 228 -150 73 -203 85 -380 84
-134 0 -160 -3 -240 -28 -49 -15 -146 -54 -215 -86 -69 -33 -149 -64 -178 -70
-108 -20 -194 29 -227 131 -23 69 -16 201 15 282 28 75 102 172 163 213 102
70 203 78 335 28 128 -49 234 -18 283 82 29 61 29 125 1 181 -27 52 -70 85
-147 113 -127 46 -118 39 -112 84 9 63 52 182 89 244 42 72 189 218 278 277
122 81 280 146 405 166 68 11 228 3 295 -15z m1698 -1 c291 -69 568 -295 663
-540 35 -88 48 -173 28 -179 -140 -44 -222 -94 -255 -157 -23 -45 -18 -140 9
-179 67 -99 149 -121 280 -76 108 37 153 41 223 21 79 -22 146 -67 199 -132
111 -136 142 -303 80 -439 -26 -59 -66 -91 -127 -102 -69 -12 -126 2 -264 66
-72 33 -160 69 -196 80 -281 87 -592 30 -805 -148 -149 -125 -187 -246 -112
-350 35 -48 60 -65 120 -81 67 -18 124 6 211 88 95 89 172 124 288 131 108 6
173 -12 359 -98 178 -82 243 -100 360 -100 159 0 257 35 366 133 64 57 60 58
113 -43 63 -118 66 -225 11 -371 -24 -65 -31 -101 -32 -161 -2 -75 -1 -77 66
-210 83 -164 101 -239 94 -383 -6 -110 -24 -188 -37 -164 -4 7 -22 63 -40 124
-40 139 -78 220 -140 294 -155 186 -427 286 -652 240 -140 -29 -322 -157 -389
-273 -71 -125 -13 -274 119 -306 87 -20 145 5 237 107 63 70 102 87 179 81 97
-8 192 -72 236 -158 11 -22 36 -100 55 -172 44 -165 79 -236 161 -326 41 -45
64 -79 64 -94 0 -41 -40 -171 -67 -217 -59 -102 -153 -175 -215 -169 -36 3
-36 5 -83 118 -44 107 -113 199 -217 289 -182 159 -414 252 -623 251 -184 -2
-373 -80 -504 -210 -118 -117 -169 -240 -181 -435 -6 -111 -11 -138 -33 -181
-30 -60 -83 -109 -146 -137 -53 -23 -175 -57 -209 -57 l-23 0 3 458 3 457 28
57 c38 77 120 150 252 223 128 70 186 116 351 276 130 125 191 163 364 225
181 64 230 110 230 214 0 109 -89 200 -195 200 -32 0 -279 -86 -373 -130 -105
-49 -164 -93 -301 -224 -58 -56 -126 -117 -151 -138 -42 -34 -186 -118 -203
-118 -4 0 -6 591 -5 1313 3 1312 3 1312 25 1379 74 230 266 409 482 449 63 11
242 2 319 -16z m-2231 -4010 c62 -19 148 -92 174 -150 13 -29 19 -65 19 -130
1 -210 50 -340 177 -475 119 -127 220 -178 476 -240 65 -15 121 -31 124 -33 7
-8 -15 -72 -43 -129 -32 -63 -129 -165 -196 -205 -30 -18 -92 -42 -138 -54
-72 -18 -103 -21 -210 -16 -218 10 -346 61 -477 192 -46 45 -83 87 -83 91 0 5
30 23 67 39 156 68 209 178 147 304 -34 68 -83 101 -161 108 -55 5 -63 3 -158
-47 -79 -42 -111 -54 -160 -58 -119 -9 -286 52 -366 134 l-30 31 53 31 c61 34
122 91 145 135 8 17 24 57 35 91 86 263 379 448 605 381z m2635 -9 c37 -13 98
-45 137 -70 123 -82 170 -148 255 -357 32 -79 87 -136 170 -177 l58 -30 -51
-40 c-66 -52 -146 -90 -229 -108 -126 -26 -187 -16 -296 49 -163 98 -319 36
-342 -137 -5 -34 -1 -56 19 -99 34 -74 70 -100 210 -150 24 -9 10 -34 -57
-106 -131 -140 -331 -210 -565 -198 -173 8 -308 68 -405 180 -51 57 -106 159
-109 201 l-2 28 150 38 c83 21 173 47 200 58 136 55 250 148 331 273 67 103
86 171 94 334 7 155 19 193 82 251 89 85 218 107 350 60z m-1377 -1513 c58
-76 128 -138 210 -188 l59 -35 -317 0 c-174 0 -317 2 -317 4 0 2 21 16 46 31
57 33 173 142 220 206 20 27 39 49 42 48 4 0 30 -30 57 -66z"/>
<path d="M3870 7348 c-64 -34 -110 -105 -110 -170 0 -66 26 -113 99 -177 66
-57 97 -105 107 -169 5 -34 0 -54 -35 -130 -24 -53 -41 -104 -41 -126 0 -110
97 -204 201 -194 141 14 254 182 266 394 10 173 -44 325 -161 450 -120 130
-232 172 -326 122z"/>
<path d="M5885 7358 c-87 -31 -213 -158 -269 -271 -52 -105 -69 -192 -63 -307
17 -279 183 -459 352 -381 116 54 144 156 80 290 -40 83 -47 159 -19 214 9 18
51 66 94 107 61 59 81 84 90 118 22 85 -22 171 -112 216 -55 27 -103 32 -153
14z"/>
</g>
</svg>
